<svg xmlns="http://www.w3.org/2000/svg" viewBox="0 0 13.67 13.67"><defs><style>.cls-1{fill:#fff;}</style></defs><g id="Layer_2" data-name="Layer 2"><g id="LilNiftyLogo"><path class="cls-1" d="M13.67,6.83A6.84,6.84,0,1,1,6.83,0,6.85,6.85,0,0,1,13.67,6.83Zm-.46,0a6.38,6.38,0,1,0-6.38,6.36A6.37,6.37,0,0,0,13.21,6.85Z"/><path class="cls-1" d="M3.79,8.79C3.29,9,3,8.56,2.67,8.38a.7.7,0,0,0,.11.55c.07.14,0,.21-.09.28s-.2.09-.31-.08a1.16,1.16,0,0,1,.49-1.75c.35-.16.36-.17.42.22L3.35,8h0c.12-.23.26-.47.37-.71s.12-.18.25-.11.24.13.15.31S4,7.8,3.9,8a.88.88,0,0,0-.11.67A.85.85,0,0,1,3.79,8.79Z"/><path class="cls-1" d="M6.57,7.86,7,8c.18.07.22.18.11.34S7,8.4,6.94,8.4l-.31-.09c-.24-.07-.37,0-.33.3l.06.19c0,.07,0,.13.06.21A2.76,2.76,0,0,1,6,9.19a.13.13,0,0,1-.12-.06.89.89,0,0,1-.15-.87c.15-.33.34-.65.5-1a.25.25,0,0,1,.34-.1,8,8,0,0,1,.84.38c.09,0,.09.12,0,.2s-.1.16-.22.09L7,7.7C6.72,7.58,6.71,7.58,6.57,7.86Z"/><path class="cls-1" d="M7.84,7.08a7.75,7.75,0,0,0,.78.35,1.06,1.06,0,0,0,.82-.16c-.06.48-.31.69-.73.65a.22.22,0,0,0-.27.18A1.07,1.07,0,0,0,8.5,9c.05.09.09.18.14.26l0,0a.89.89,0,0,1-.79-.51A1,1,0,0,1,8,7.88c.09-.13.07-.22-.07-.31S7.65,7.35,7.84,7.08Z"/><path class="cls-1" d="M10.47,7.87l.34-.48c.24-.36.25-.37.66-.25l.08.05-.13.15c-.29.28-.57.57-.86.84a.78.78,0,0,0-.2.7.39.39,0,0,1-.32.36.12.12,0,0,1-.08,0A.43.43,0,0,1,9.87,9c-.08-.4-.15-.81-.22-1.21a.15.15,0,0,1,.13-.2,2.5,2.5,0,0,0,.38-.15c.12-.07.17,0,.21.09S10.42,7.73,10.47,7.87Z"/><path class="cls-1" d="M6.13,6.15a1.34,1.34,0,0,0-1.34.14.91.91,0,0,1-.17-.89c.16-.37.36-.73.55-1.1,0-.09.43-.17.51-.09a.18.18,0,0,1,0,.16l-.28.56c-.09.17-.18.34-.25.51a.43.43,0,0,0,0,.16h.14l.2,0c.34,0,.47.06.56.4C6.09,6,6.1,6.05,6.13,6.15Z"/><path class="cls-1" d="M8.72,4.19a2,2,0,0,1-.08.28l-.43.81a.18.18,0,0,0,0,.09,1.66,1.66,0,0,0,0,.22h.2a.7.7,0,0,0,.14,0c.39,0,.55.11.6.56A4.67,4.67,0,0,0,8.56,6,1.1,1.1,0,0,0,8,6.2c-.18.11-.19.1-.29-.09a.87.87,0,0,1,0-.83c.16-.32.32-.64.5-1a.26.26,0,0,1,.2-.13A2.21,2.21,0,0,1,8.72,4.19Z"/><path class="cls-1" d="M7.3,4.28c-.1.18-.17.33-.25.47A1.07,1.07,0,0,0,7,5.94c.05.09.18.21,0,.31s-.32.1-.44-.08a1.25,1.25,0,0,1-.21-1.26.72.72,0,0,1,.49-.48Z"/><path class="cls-1" d="M5.4,7.22c-.1.17-.17.32-.26.46a1.07,1.07,0,0,0,0,1.19c0,.09.19.21,0,.31a.28.28,0,0,1-.44-.08,1.29,1.29,0,0,1-.24-1.21A.77.77,0,0,1,5,7.36Z"/></g></g></svg>