<svg width="13" height="13" viewBox="0 0 13 13" fill="none" xmlns="http://www.w3.org/2000/svg">
<path d="M7.96788 6.37695L12.421 1.92383C12.6324 1.71285 12.7512 1.42657 12.7515 1.12795C12.7518 0.829323 12.6334 0.542827 12.4224 0.331483C12.2114 0.120138 11.9252 0.00125829 11.6265 0.000994563C11.3279 0.00073084 11.0414 0.119105 10.8301 0.330076L6.37695 4.7832L1.92383 0.330076C1.71248 0.118732 1.42584 0 1.12695 0C0.828065 0 0.541421 0.118732 0.330076 0.330076C0.118732 0.541421 0 0.828065 0 1.12695C0 1.42584 0.118732 1.71248 0.330076 1.92383L4.7832 6.37695L0.330076 10.8301C0.118732 11.0414 0 11.3281 0 11.6269C0 11.9258 0.118732 12.2125 0.330076 12.4238C0.541421 12.6352 0.828065 12.7539 1.12695 12.7539C1.42584 12.7539 1.71248 12.6352 1.92383 12.4238L6.37695 7.9707L10.8301 12.4238C11.0414 12.6352 11.3281 12.7539 11.6269 12.7539C11.9258 12.7539 12.2125 12.6352 12.4238 12.4238C12.6352 12.2125 12.7539 11.9258 12.7539 11.6269C12.7539 11.3281 12.6352 11.0414 12.4238 10.8301L7.96788 6.37695Z" fill="white"/>
</svg>
