<?xml version="1.0" encoding="UTF-8"?>
<svg width="0" height="0" viewBox="0 0 115 37" version="1.1" xmlns="http://www.w3.org/2000/svg" xmlns:xlink="http://www.w3.org/1999/xlink">
    <!-- Generator: Sketch 52.5 (67469) - http://www.bohemiancoding.com/sketch -->
    <title>REDPILL</title>
    <desc>Created with Sketch.</desc>
    <g id="Page-1" stroke="none" stroke-width="1" fill="none" fill-rule="evenodd">
        <path d="M1.6,15.93 C1.5599998,15.2099964 1.53500005,14.4950036 1.525,13.785 C1.51499995,13.0749965 1.4300008,12.3700035 1.27,11.67 C1.0499989,10.669995 0.96499975,9.6500052 1.015,8.61 C1.06500025,7.5699948 1.1099998,6.5300052 1.15,5.49 C1.15,5.2499988 1.14500005,4.96500165 1.135,4.635 C1.12499995,4.30499835 1.1299999,3.9700017 1.15,3.63 C1.1700001,3.2899983 1.22499955,2.97500145 1.315,2.685 C1.40500045,2.39499855 1.5599989,2.1600009 1.78,1.98 C2.0200012,1.7999991 2.34499795,1.71 2.755,1.71 C3.16500205,1.71 3.5999977,1.7499996 4.06,1.83 C4.5200023,1.9100004 4.9699978,1.98499965 5.41,2.055 C5.8500022,2.12500035 6.2399983,2.1300003 6.58,2.07 C6.9600019,2.0099997 7.32499825,1.9899999 7.675,2.01 C8.02500175,2.0300001 8.399998,2.0300001 8.8,2.01 C9.1600018,1.9899999 9.52499815,1.92500055 9.895,1.815 C10.2650018,1.70499945 10.6299982,1.6100004 10.99,1.53 C11.4500023,1.4299995 11.9299975,1.3899999 12.43,1.41 C12.9300025,1.4300001 13.3999978,1.4899995 13.84,1.59 C14.3000023,1.6900005 14.6899984,1.9299981 15.01,2.31 C15.3300016,2.6900019 15.6399985,3.0499983 15.94,3.39 C16.4600026,3.9700029 16.9699975,4.6199964 17.47,5.34 C17.9700025,6.0600036 18.3599986,6.7999962 18.64,7.56 C18.8800012,8.2600035 18.9850002,9.0499956 18.955,9.93 C18.9249998,10.8100044 18.8200009,11.6199963 18.64,12.36 C18.5599996,12.7000017 18.4500007,13.0299984 18.31,13.35 C18.1699993,13.6700016 18.0200008,13.9799985 17.86,14.28 C17.7399994,14.5400013 17.6100007,14.7599991 17.47,14.94 C17.3099992,15.1600011 17.1250011,15.3949988 16.915,15.645 C16.704999,15.8950013 16.5700003,16.1599986 16.51,16.44 C16.4299996,16.8200019 16.4649993,17.1649985 16.615,17.475 C16.7650008,17.7850016 16.9649987,18.0799986 17.215,18.36 C17.4650012,18.6400014 17.7349985,18.9049988 18.025,19.155 C18.3150014,19.4050013 18.5799988,19.6499988 18.82,19.89 C19.020001,20.1100011 19.2249989,20.3099991 19.435,20.49 C19.6450011,20.6700009 19.8399991,20.8699989 20.02,21.09 C20.1800008,21.2700009 20.2949997,21.464999 20.365,21.675 C20.4350003,21.8850011 20.5399993,22.0799991 20.68,22.26 C20.7800005,22.4200008 20.9049992,22.5549995 21.055,22.665 C21.2050007,22.7750006 21.3299995,22.9199991 21.43,23.1 C21.630001,23.4400017 21.7599997,23.809998 21.82,24.21 C21.8800003,24.610002 21.810001,24.9899982 21.61,25.35 C21.5099995,25.5700011 21.3650009,25.7549993 21.175,25.905 C20.984999,26.0550008 20.8300006,26.229999 20.71,26.43 C20.5899994,26.6100009 20.4950004,26.8149988 20.425,27.045 C20.3549996,27.2750012 20.3000002,27.489999 20.26,27.69 C20.1799996,28.090002 20.1649997,28.5049979 20.215,28.935 C20.2650002,29.3650022 20.2100008,29.779998 20.05,30.18 C19.9699996,30.3400008 19.8850005,30.4849994 19.795,30.615 C19.7049996,30.7450007 19.6400002,30.9199989 19.6,31.14 C19.5599998,31.3000008 19.5499999,31.4899989 19.57,31.71 C19.5900001,31.9300011 19.6,32.1299991 19.6,32.31 C19.6,32.4700008 19.5750003,32.6599989 19.525,32.88 C19.4749998,33.1000011 19.4000005,33.309999 19.3,33.51 C19.1999995,33.710001 19.0750007,33.8849993 18.925,34.035 C18.7749992,34.1850008 18.600001,34.2699999 18.4,34.29 C18.1799989,34.3300002 18.0300004,34.2700008 17.95,34.11 C17.8699996,33.9499992 17.8399999,33.7600011 17.86,33.54 C17.9000002,33.2799987 17.9349998,33.0300012 17.965,32.79 C17.9950002,32.5499988 18.01,32.2800015 18.01,31.98 C18.01,31.4799975 17.9400007,30.9900024 17.8,30.51 C17.6599993,30.0299976 17.5400005,29.5600023 17.44,29.1 C17.3999998,28.899999 17.3300005,28.7400006 17.23,28.62 C17.1299995,28.4999994 17.0400004,28.3600008 16.96,28.2 C16.8799996,28.0199991 16.7850005,27.7850014 16.675,27.495 C16.5649994,27.2049986 16.4300008,26.9550011 16.27,26.745 C16.1099992,26.534999 15.930001,26.4100002 15.73,26.37 C15.529999,26.3299998 15.3000013,26.4699984 15.04,26.79 C14.9199994,26.9500008 14.855,27.1099992 14.845,27.27 C14.8349999,27.4300008 14.7200011,27.5499996 14.5,27.63 C14.2599988,27.7100004 14.0700007,27.6450011 13.93,27.435 C13.7899993,27.224999 13.6900003,27.0400008 13.63,26.88 C13.5299995,26.5399983 13.4250006,26.2300014 13.315,25.95 C13.2049994,25.6699986 13.0800007,25.3700016 12.94,25.05 C12.7999993,24.7499985 12.6650007,24.4350017 12.535,24.105 C12.4049994,23.7749984 12.240001,23.4600015 12.04,23.16 C11.8999993,22.9399989 11.7350009,22.7500008 11.545,22.59 C11.354999,22.4299992 11.1800008,22.2400011 11.02,22.02 C10.8799993,21.8599992 10.7500006,21.675001 10.63,21.465 C10.5099994,21.254999 10.3400011,21.1300002 10.12,21.09 C9.8799988,21.0499998 9.7100005,21.0949994 9.61,21.225 C9.5099995,21.3550007 9.4500001,21.519999 9.43,21.72 C9.4099999,21.920001 9.4199998,22.1299989 9.46,22.35 C9.5000002,22.5700011 9.5299999,22.7399994 9.55,22.86 C9.6300004,23.260002 9.69499975,23.6849978 9.745,24.135 C9.79500025,24.5850023 9.6800014,24.9899982 9.4,25.35 C9.2999995,25.4900007 9.18500065,25.5949997 9.055,25.665 C8.92499935,25.7350004 8.78500075,25.7899998 8.635,25.83 C8.48499925,25.8700002 8.3400007,25.9199997 8.2,25.98 C8.0599993,26.0400003 7.9300006,26.1199995 7.81,26.22 C7.6499992,26.3800008 7.5600001,26.5999986 7.54,26.88 C7.5199999,27.1600014 7.51,27.4099989 7.51,27.63 C7.51,27.9100014 7.4900002,28.1349992 7.45,28.305 C7.4099998,28.4750009 7.3100008,28.6699989 7.15,28.89 C7.0099993,29.090001 6.88500055,29.2749992 6.775,29.445 C6.66499945,29.6150009 6.6000001,29.8199988 6.58,30.06 C6.5399998,30.3000012 6.5399998,30.5349989 6.58,30.765 C6.6200002,30.9950012 6.6200002,31.2399987 6.58,31.5 C6.5399998,31.7200011 6.48500035,31.9449989 6.415,32.175 C6.34499965,32.4050012 6.2800003,32.6299989 6.22,32.85 C6.1599997,33.0700011 6.1100002,33.3049988 6.07,33.555 C6.0299998,33.8050013 5.9600005,34.0199991 5.86,34.2 C5.7399994,34.3800009 5.5600012,34.4849999 5.32,34.515 C5.0799988,34.5450002 4.8800008,34.4800008 4.72,34.32 C4.5599992,34.1599992 4.45500025,33.9550013 4.405,33.705 L4.27,33.03 C4.2499999,32.829999 4.1900005,32.6000013 4.09,32.34 C4.0299997,32.1799992 3.9600004,32.0300007 3.88,31.89 C3.7999996,31.7499993 3.76,31.580001 3.76,31.38 C3.76,31.179999 3.7899997,30.985001 3.85,30.795 C3.9100003,30.604999 3.9499999,30.410001 3.97,30.21 C4.0300003,29.5499967 3.9100015,28.9500027 3.61,28.41 C3.3099985,27.8699973 2.97500185,27.3400026 2.605,26.82 C2.23499815,26.2999974 1.89500155,25.7700027 1.585,25.23 C1.27499845,24.6899973 1.1399998,24.0700035 1.18,23.37 C1.2200002,22.8499974 1.2699997,22.3200027 1.33,21.78 C1.3900003,21.2399973 1.4599996,20.7100026 1.54,20.19 C1.6400005,19.4899965 1.6800001,18.7800036 1.66,18.06 C1.6399999,17.3399964 1.6200001,16.6300035 1.6,15.93 Z M9.52,10.26 C9.52,10.3600005 9.50500015,10.4949991 9.475,10.665 C9.44499985,10.8350009 9.4499998,10.9599996 9.49,11.04 C9.5900005,11.2200009 9.74499895,11.2700004 9.955,11.19 C10.1650011,11.1099996 10.3199995,11.0500002 10.42,11.01 C10.9400026,10.7499987 11.195,10.4050022 11.185,9.975 C11.175,9.54499785 10.9800019,9.1600017 10.6,8.82 C10.4599993,8.6999994 10.2850011,8.63500005 10.075,8.625 C9.86499895,8.61499995 9.7000006,8.6899992 9.58,8.85 C9.4199992,9.050001 9.3699997,9.2799987 9.43,9.54 C9.4900003,9.8000013 9.52,10.0399989 9.52,10.26 Z M21.4613514,15.48 C21.5013516,15.0999981 21.5463511,14.715002 21.5963514,14.325 C21.6463517,13.9349981 21.6613515,13.540002 21.6413514,13.14 C21.6213513,12.8199984 21.5913516,12.5050016 21.5513514,12.195 C21.5113512,11.8849985 21.4913514,11.5800015 21.4913514,11.28 C21.4913514,11.0599989 21.4863515,10.8400011 21.4763514,10.62 C21.4663513,10.3999989 21.4813512,10.1700012 21.5213514,9.93 C21.5813517,9.2699967 21.6813507,8.6100033 21.8213514,7.95 C21.9213519,7.5299979 21.9563516,7.09500225 21.9263514,6.645 C21.8963512,6.19499775 21.8913513,5.7500022 21.9113514,5.31 C21.9313515,4.8299976 22.0613502,4.4500014 22.3013514,4.17 C22.5413526,3.8899986 22.8713493,3.6700008 23.2913514,3.51 C23.6313531,3.3699993 23.9613498,3.22500075 24.2813514,3.075 C24.601353,2.92499925 24.9413496,2.8400001 25.3013514,2.82 C25.6613532,2.7999999 26.0163496,2.80499985 26.3663514,2.835 C26.7163532,2.86500015 27.0713496,2.8600002 27.4313514,2.82 C27.7713531,2.7799998 28.1163496,2.72500035 28.4663514,2.655 C28.8163531,2.58499965 29.1713496,2.55 29.5313514,2.55 C29.9313534,2.55 30.3213495,2.55499995 30.7013514,2.565 C31.0813533,2.57500005 31.4613495,2.6599992 31.8413514,2.82 C32.1413529,2.9400006 32.4163501,3.0199998 32.6663514,3.06 C32.9163527,3.1000002 33.1613502,3.12 33.4013514,3.12 C33.6413526,3.12 33.8913501,3.1100001 34.1513514,3.09 C34.4113527,3.0699999 34.7013498,3.06 35.0213514,3.06 C35.6413545,3.06 36.1763491,3.19499865 36.6263514,3.465 C37.0763536,3.73500135 37.43635,4.08499785 37.7063514,4.515 C37.9763528,4.94500215 38.1463511,5.4299973 38.2163514,5.97 C38.2863517,6.5100027 38.261352,7.0599972 38.1413514,7.62 C38.0813511,7.8800013 37.9763522,8.12499885 37.8263514,8.355 C37.6763507,8.58500115 37.5913515,8.8399986 37.5713514,9.12 C37.5313512,9.4000014 37.5063515,9.6799986 37.4963514,9.96 C37.4863513,10.2400014 37.3613526,10.4899989 37.1213514,10.71 C36.8813502,10.9300011 36.6263528,11.0200002 36.3563514,10.98 C36.08635,10.9399998 35.8613523,10.7800014 35.6813514,10.5 C35.5213506,10.2599988 35.3613522,10.0500009 35.2013514,9.87 C35.0413506,9.6899991 34.8313527,9.5100009 34.5713514,9.33 C34.3313502,9.1499991 34.0813527,9.0400002 33.8213514,9 C33.5613501,8.9599998 33.2963527,8.95499985 33.0263514,8.985 C32.7563501,9.01500015 32.4813528,9.06499965 32.2013514,9.135 C31.92135,9.20500035 31.6513527,9.2599998 31.3913514,9.3 C31.2713508,9.3200001 31.1463521,9.3200001 31.0163514,9.3 C30.8863508,9.2799999 30.7513521,9.2600001 30.6113514,9.24 C30.4713507,9.2199999 30.341352,9.21 30.2213514,9.21 C30.1013508,9.21 29.9913519,9.2399997 29.8913514,9.3 C29.7713508,9.3800004 29.6913516,9.4799994 29.6513514,9.6 C29.6113512,9.7200006 29.6013513,9.84499935 29.6213514,9.975 C29.6413515,10.1050007 29.686351,10.2299994 29.7563514,10.35 C29.8263517,10.4700006 29.901351,10.5699996 29.9813514,10.65 C30.2413527,10.8900012 30.5213499,11.0499996 30.8213514,11.13 C31.1213529,11.2100004 31.4313498,11.2549999 31.7513514,11.265 C32.071353,11.2750001 32.3963498,11.2750001 32.7263514,11.265 C33.056353,11.2549999 33.3813498,11.2799997 33.7013514,11.34 C34.1213535,11.4000003 34.4213505,11.5849985 34.6013514,11.895 C34.7813523,12.2050015 34.8963511,12.559998 34.9463514,12.96 C34.9963516,13.360002 35.0013516,13.7749979 34.9613514,14.205 C34.9213512,14.6350022 34.9013514,15.0099984 34.9013514,15.33 C34.9013514,15.6500016 34.9113513,15.9999981 34.9313514,16.38 C34.9513515,16.7600019 34.8513525,17.0599989 34.6313514,17.28 C34.4313504,17.480001 34.2463522,17.575 34.0763514,17.565 C33.9063505,17.555 33.7513521,17.4950006 33.6113514,17.385 C33.4713507,17.2749994 33.3313521,17.1350008 33.1913514,16.965 C33.0513507,16.7949991 32.9113521,16.6600005 32.7713514,16.56 C32.6513508,16.4799996 32.4963524,16.4100003 32.3063514,16.35 C32.1163505,16.2899997 31.9163524,16.2500001 31.7063514,16.23 C31.4963504,16.2099999 31.2963524,16.2249997 31.1063514,16.275 C30.9163504,16.3250003 30.761352,16.4099994 30.6413514,16.53 C30.5213508,16.6700007 30.4513515,16.8299991 30.4313514,17.01 C30.4113513,17.1900009 30.4213512,17.3699991 30.4613514,17.55 C30.5013516,17.7300009 30.5763509,17.8949992 30.6863514,18.045 C30.796352,18.1950007 30.9113508,18.3099996 31.0313514,18.39 C31.3713531,18.590001 31.7563492,18.7099998 32.1863514,18.75 C32.6163535,18.7900002 33.0013497,18.8799993 33.3413514,19.02 C33.8013537,19.2000009 34.3463483,19.2999999 34.9763514,19.32 C35.6063545,19.3400001 36.1713489,19.35 36.6713514,19.35 C37.591356,19.35 38.0513514,19.7999955 38.0513514,20.7 C38.0513514,21.1200021 38.0613513,21.5899974 38.0813514,22.11 C38.1013515,22.6300026 38.0913516,23.1499974 38.0513514,23.67 C38.0113512,24.1900026 37.9213521,24.6899976 37.7813514,25.17 C37.6413507,25.6500024 37.4013531,26.0499984 37.0613514,26.37 C36.9013506,26.5300008 36.7213524,26.6649994 36.5213514,26.775 C36.3213504,26.8850006 36.1213524,26.9799996 35.9213514,27.06 C35.7613506,27.1200003 35.5963522,27.155 35.4263514,27.165 C35.2563505,27.1750001 35.111352,27.2099997 34.9913514,27.27 C34.5913494,27.4500009 34.1613537,27.6599988 33.7013514,27.9 C33.2413491,28.1400012 32.851353,28.4299983 32.5313514,28.77 C32.2913502,29.0500014 32.1613515,29.3249986 32.1413514,29.595 C32.1213513,29.8650014 32.0413521,30.1499985 31.9013514,30.45 C31.7413506,30.7500015 31.5313527,30.994999 31.2713514,31.185 C31.0113501,31.375001 30.7713525,31.5799989 30.5513514,31.8 C30.3913506,31.9600008 30.2813517,32.1049993 30.2213514,32.235 C30.1613511,32.3650006 30.1263515,32.4999993 30.1163514,32.64 C30.1063513,32.7800007 30.1113513,32.9199993 30.1313514,33.06 C30.1513515,33.2000007 30.1813512,33.369999 30.2213514,33.57 C30.2413515,33.7500009 30.2513514,33.9799986 30.2513514,34.26 C30.2513514,34.5400014 30.2113518,34.8049987 30.1313514,35.055 C30.051351,35.3050012 29.9313522,35.4899994 29.7713514,35.61 C29.6113506,35.7300006 29.3913528,35.7100008 29.1113514,35.55 C28.9513506,35.4699996 28.8413517,35.3450008 28.7813514,35.175 C28.7213511,35.0049992 28.6863514,34.8300009 28.6763514,34.65 C28.6663514,34.4699991 28.6763513,34.2850009 28.7063514,34.095 C28.7363515,33.9049991 28.7613513,33.7400007 28.7813514,33.6 C28.8813519,33.0199971 28.9263514,32.4250031 28.9163514,31.815 C28.9063514,31.204997 28.8613518,30.600003 28.7813514,30 C28.7413512,29.7199986 28.6913517,29.4300015 28.6313514,29.13 C28.5713511,28.8299985 28.5413514,28.5300015 28.5413514,28.23 C28.5413514,28.029999 28.576351,27.8050012 28.6463514,27.555 C28.7163517,27.3049987 28.7013519,27.0900009 28.6013514,26.91 C28.521351,26.7499992 28.3963522,26.6250005 28.2263514,26.535 C28.0563506,26.4449995 27.8763524,26.3800002 27.6863514,26.34 C27.4963505,26.2999998 27.2963524,26.2750001 27.0863514,26.265 C26.8763504,26.2549999 26.7013521,26.25 26.5613514,26.25 C26.481351,26.25 26.4163517,26.3149994 26.3663514,26.445 C26.3163511,26.5750006 26.2713516,26.7249992 26.2313514,26.895 C26.1913512,27.0650009 26.1613515,27.2249992 26.1413514,27.375 C26.1213513,27.5250008 26.1113514,27.6299997 26.1113514,27.69 C26.1113514,27.9700014 26.1263512,28.2199989 26.1563514,28.44 C26.1863516,28.6600011 26.1713517,28.9099986 26.1113514,29.19 C26.0513511,29.4500013 25.9713519,29.7149987 25.8713514,29.985 C25.7713509,30.2550014 25.7113515,30.5299986 25.6913514,30.81 L25.6913514,31.335 C25.6913514,31.5250009 25.6813515,31.6999992 25.6613514,31.86 C25.6413513,32.0200008 25.5913518,32.1599994 25.5113514,32.28 C25.431351,32.4000006 25.3013523,32.4699999 25.1213514,32.49 C24.84135,32.5300002 24.641352,32.450001 24.5213514,32.25 C24.4013508,32.049999 24.3263516,31.8050014 24.2963514,31.515 C24.2663512,31.2249986 24.2663512,30.9350015 24.2963514,30.645 C24.3263516,30.3549985 24.3513513,30.1300008 24.3713514,29.97 C24.4113516,29.5099977 24.4263514,29.0750021 24.4163514,28.665 C24.4063514,28.254998 24.341352,27.8300022 24.2213514,27.39 C24.141351,27.0899985 24.0163522,26.8550008 23.8463514,26.685 C23.6763506,26.5149992 23.4513528,26.3500008 23.1713514,26.19 C22.89135,26.0299992 22.6213527,25.8850007 22.3613514,25.755 C22.1013501,25.6249993 21.8913522,25.4000016 21.7313514,25.08 C21.45135,24.5199972 21.3113514,23.940003 21.3113514,23.34 C21.3113514,22.739997 21.351351,22.140003 21.4313514,21.54 C21.5113518,20.9199969 21.5613513,20.2800033 21.5813514,19.62 C21.6013515,18.9599967 21.5613519,18.330003 21.4613514,17.73 C21.381351,17.329998 21.3513513,16.9600017 21.3713514,16.62 C21.3913515,16.2799983 21.4213512,15.9000021 21.4613514,15.48 Z M44.6827028,12.15 C44.6027024,12.350001 44.5527029,12.6349982 44.5327028,13.005 C44.5127027,13.3750019 44.5377024,13.7249983 44.6077028,14.055 C44.6777031,14.3850016 44.797702,14.644999 44.9677028,14.835 C45.1377037,15.025001 45.3827012,15.0300009 45.7027028,14.85 C45.7827032,14.8099998 45.8327027,14.7750002 45.8527028,14.745 L45.9427028,14.61 C46.0427033,14.4899994 46.1127026,14.3200011 46.1527028,14.1 C46.192703,13.8799989 46.2127028,13.6450012 46.2127028,13.395 C46.2127028,13.1449987 46.1827031,12.8900013 46.1227028,12.63 C46.0627025,12.3699987 45.9927032,12.140001 45.9127028,11.94 C45.752702,11.5799982 45.5627039,11.3800002 45.3427028,11.34 C45.1227017,11.2999998 44.9027039,11.5699971 44.6827028,12.15 Z M38.0827028,13.44 C38.122703,13.0199979 38.1627026,12.6150019 38.2027028,12.225 C38.242703,11.8349981 38.2327031,11.4100023 38.1727028,10.95 C38.1327026,10.549998 38.0577034,10.1750017 37.9477028,9.825 C37.8377023,9.47499825 37.7827028,9.100002 37.7827028,8.7 C37.7827028,8.2799979 37.7927027,7.8500022 37.8127028,7.41 C37.8327029,6.9699978 37.822703,6.550002 37.7827028,6.15 C37.7627027,5.8299984 37.7377029,5.4900018 37.7077028,5.13 C37.6777027,4.7699982 37.6877026,4.41500175 37.7377028,4.065 C37.7877031,3.71499825 37.8827021,3.38500155 38.0227028,3.075 C38.1627035,2.76499845 38.3827013,2.5000011 38.6827028,2.28 C38.9627042,2.079999 39.3077007,1.98499995 39.7177028,1.995 C40.1277048,2.00500005 40.5027011,2.0199999 40.8427028,2.04 C41.2027046,2.0600001 41.5777009,2.0400003 41.9677028,1.98 C42.3577048,1.9199997 42.7227011,1.9399995 43.0627028,2.04 C43.2227036,2.0800002 43.3677022,2.13499965 43.4977028,2.205 C43.6277035,2.27500035 43.772702,2.3299998 43.9327028,2.37 C44.1327038,2.4100002 44.3277019,2.4200001 44.5177028,2.4 C44.7077037,2.3799999 44.9027018,2.37 45.1027028,2.37 C45.4427045,2.37 45.8027009,2.46499905 46.1827028,2.655 C46.5627047,2.84500095 46.932701,2.9899995 47.2927028,3.09 C47.4727037,3.1300002 47.647702,3.1599999 47.8177028,3.18 C47.9877036,3.2000001 48.1627019,3.2399997 48.3427028,3.3 C48.6427043,3.4000005 48.9327014,3.5399991 49.2127028,3.72 C49.4927042,3.9000009 49.7627015,4.0999989 50.0227028,4.32 C50.2027037,4.4800008 50.372702,4.64499915 50.5327028,4.815 C50.6927036,4.98500085 50.8627019,5.1499992 51.0427028,5.31 C51.5227052,5.710002 51.937701,6.0799983 52.2877028,6.42 C52.6377045,6.7600017 52.9727012,7.1999973 53.2927028,7.74 C53.8727057,8.7200049 54.2827016,9.7499946 54.5227028,10.83 C54.6827036,11.5900038 54.7527029,12.3449962 54.7327028,13.095 C54.7127027,13.8450037 54.6027038,14.619996 54.4027028,15.42 C54.3027023,15.8400021 54.1677037,16.2199983 53.9977028,16.56 C53.827702,16.9000017 53.6327039,17.2499982 53.4127028,17.61 C53.3127023,17.7500007 53.2227032,17.8749995 53.1427028,17.985 C53.0627024,18.0950005 52.9627034,18.2199993 52.8427028,18.36 C52.7227022,18.5200008 52.6327031,18.6749992 52.5727028,18.825 C52.5127025,18.9750007 52.4427032,19.1399991 52.3627028,19.32 C52.202702,19.7000019 51.9927041,20.084998 51.7327028,20.475 C51.4727015,20.8650019 51.2027042,21.2099985 50.9227028,21.51 C50.762702,21.6900009 50.5927037,21.8549993 50.4127028,22.005 C50.2327019,22.1550007 50.0727035,22.329999 49.9327028,22.53 C49.8327023,22.6900008 49.7377032,22.8799989 49.6477028,23.1 C49.5577024,23.3200011 49.4727032,23.529999 49.3927028,23.73 C49.3727027,23.7700002 49.3527029,23.8149997 49.3327028,23.865 C49.3127027,23.9150002 49.2927029,23.9599998 49.2727028,24 C49.1727023,24.2800014 49.0727033,24.5699985 48.9727028,24.87 C48.8727023,25.1700015 48.7827032,25.4599986 48.7027028,25.74 C48.6027023,26.1200019 48.5627027,26.4949981 48.5827028,26.865 C48.6027029,27.2350018 48.592703,27.6099981 48.5527028,27.99 C48.4927025,28.4700024 48.4127033,28.9549975 48.3127028,29.445 C48.2127023,29.9350024 48.142703,30.4299975 48.1027028,30.93 C48.1027028,31.0300005 48.1077028,31.179999 48.1177028,31.38 C48.1277028,31.580001 48.1327028,31.7849989 48.1327028,31.995 C48.1327028,32.205001 48.1227029,32.4049991 48.1027028,32.595 C48.0827027,32.7850009 48.0427031,32.9199996 47.9827028,33 C47.8827023,33.1200006 47.7427037,33.175 47.5627028,33.165 C47.3827019,33.1549999 47.2327034,33.1000005 47.1127028,33 C46.9727021,32.8799994 46.8977028,32.7300009 46.8877028,32.55 C46.8777028,32.3699991 46.8627029,32.2000008 46.8427028,32.04 C46.8027026,31.6799982 46.8327023,31.3300017 46.9327028,30.99 C47.0327033,30.6499983 47.0127035,30.3100017 46.8727028,29.97 C46.7727023,29.7099987 46.6627034,29.4600012 46.5427028,29.22 C46.4227022,28.9799988 46.3527029,28.7200014 46.3327028,28.44 C46.3127027,28.0599981 46.2777031,27.665002 46.2277028,27.255 C46.1777026,26.8449979 46.0827035,26.4700017 45.9427028,26.13 C45.8427023,25.8899988 45.7377033,25.6600011 45.6277028,25.44 C45.5177022,25.2199989 45.4227032,24.9900012 45.3427028,24.75 C45.2827025,24.5299989 45.232703,24.3400008 45.1927028,24.18 C45.1527026,24.0199992 45.0427037,23.8600008 44.8627028,23.7 C44.6227016,23.5199991 44.3777041,23.3700006 44.1277028,23.25 C43.8777015,23.1299994 43.6027043,23.1199995 43.3027028,23.22 C43.0227014,23.3000004 42.7727039,23.434999 42.5527028,23.625 C42.3327017,23.8150009 42.1627034,24.0499986 42.0427028,24.33 C41.9627024,24.4900008 41.8927031,24.6849988 41.8327028,24.915 C41.7727025,25.1450011 41.7027032,25.3799988 41.6227028,25.62 C41.5427024,25.8600012 41.4527033,26.0849989 41.3527028,26.295 C41.2527023,26.5050011 41.1227036,26.6599995 40.9627028,26.76 C40.8427022,26.8400004 40.7077036,26.8400004 40.5577028,26.76 C40.4077021,26.6799996 40.2677035,26.5650007 40.1377028,26.415 C40.0077022,26.2649992 39.8927033,26.1000009 39.7927028,25.92 C39.6927023,25.7399991 39.622703,25.6000005 39.5827028,25.5 C39.5227025,25.3399992 39.4627031,25.1700009 39.4027028,24.99 C39.3427025,24.8099991 39.2827031,24.6400008 39.2227028,24.48 C39.1227023,24.1799985 38.9877036,23.9000013 38.8177028,23.64 C38.647702,23.3799987 38.5127033,23.1100014 38.4127028,22.83 C38.2327019,22.3699977 38.1527027,21.8750026 38.1727028,21.345 C38.1927029,20.8149973 38.2227026,20.3100024 38.2627028,19.83 C38.3227031,19.3699977 38.3027033,18.8800026 38.2027028,18.36 C38.1427025,17.959998 38.1277026,17.5500021 38.1577028,17.13 C38.187703,16.7099979 38.1927029,16.300002 38.1727028,15.9 C38.1527027,15.499998 38.122703,15.100002 38.0827028,14.7 C38.0427026,14.299998 38.0427026,13.8800022 38.0827028,13.44 Z M54.6740542,13.26 C54.6540541,12.2399949 54.6340543,11.2050052 54.6140542,10.155 C54.5940541,9.10499475 54.6640534,8.080005 54.8240542,7.08 C54.8840545,6.7199982 54.9040543,6.36500175 54.8840542,6.015 C54.8640541,5.66499825 54.8490543,5.3200017 54.8390542,4.98 C54.8290542,4.6399983 54.8340541,4.29500175 54.8540542,3.945 C54.8740543,3.59499825 54.9540535,3.2400018 55.0940542,2.88 C55.2340549,2.5199982 55.4440528,2.2800006 55.7240542,2.16 C56.0040556,2.0399994 56.3190524,1.98499995 56.6690542,1.995 C57.0190559,2.00500005 57.3690525,2.0499996 57.7190542,2.13 C58.069056,2.2100004 58.3840528,2.2699998 58.6640542,2.31 C59.1640567,2.3700003 59.6640517,2.38500015 60.1640542,2.355 C60.6640567,2.32499985 61.1640517,2.2900002 61.6640542,2.25 C62.1640567,2.2099998 62.6640517,2.1800001 63.1640542,2.16 C63.6640567,2.1399999 64.1640517,2.1799995 64.6640542,2.28 C65.5040584,2.4400008 66.2940505,2.73499785 67.0340542,3.165 C67.7740579,3.59500215 68.464051,4.0799973 69.1040542,4.62 C69.6040567,5.020002 69.9790529,5.4799974 70.2290542,6 C70.4790555,6.5200026 70.7440528,7.0499973 71.0240542,7.59 C71.2840555,8.0700024 71.5140532,8.52499785 71.7140542,8.955 C71.9140552,9.38500215 72.0140542,9.8899971 72.0140542,10.47 L72.0140542,11.04 C72.0140542,11.2600011 71.9940544,11.4599991 71.9540542,11.64 C71.7940534,12.3600036 71.5240561,13.019997 71.1440542,13.62 C70.7640523,14.220003 70.2640573,14.719998 69.6440542,15.12 C69.3040525,15.3400011 68.9940556,15.5949985 68.7140542,15.885 C68.4340528,16.1750014 68.1490557,16.4649986 67.8590542,16.755 C67.5690527,17.0450015 67.2690558,17.3149988 66.9590542,17.565 C66.6490526,17.8150012 66.3040561,18.0199992 65.9240542,18.18 C65.5440523,18.3400008 65.169056,18.4100001 64.7990542,18.39 C64.4290524,18.3699999 64.0540561,18.2900007 63.6740542,18.15 C63.4940533,18.0899997 63.324055,18.0250003 63.1640542,17.955 C63.0040534,17.8849996 62.8490549,17.85 62.6990542,17.85 C62.5490534,17.85 62.4240547,17.8949995 62.3240542,17.985 C62.2240537,18.0750005 62.1440545,18.2499987 62.0840542,18.51 C61.9840537,18.9900024 61.9890536,19.4849975 62.0990542,19.995 C62.2090547,20.5050026 62.284054,21.0099975 62.3240542,21.51 C62.3440543,22.0100025 62.3090547,22.5099975 62.2190542,23.01 C62.1290538,23.5100025 62.0840542,24.0299973 62.0840542,24.57 C62.0840542,24.7500009 62.1090539,24.9649987 62.1590542,25.215 C62.2090544,25.4650013 62.2490541,25.7199987 62.2790542,25.98 C62.3090544,26.2400013 62.3090544,26.4849988 62.2790542,26.715 C62.2490541,26.9450011 62.1640549,27.1299993 62.0240542,27.27 C61.7440528,27.5100012 61.5090552,27.5700006 61.3190542,27.45 C61.1290532,27.3299994 60.9340552,27.170001 60.7340542,26.97 C60.4740529,26.6899986 60.2540551,26.5000005 60.0740542,26.4 C59.8940533,26.2999995 59.6140561,26.3299992 59.2340542,26.49 C59.0740534,26.5500003 58.9640545,26.6549993 58.9040542,26.805 C58.8440539,26.9550007 58.8090543,27.124999 58.7990542,27.315 C58.7890541,27.5050009 58.7940541,27.694999 58.8140542,27.885 C58.8340543,28.075001 58.8340543,28.2299994 58.8140542,28.35 C58.774054,28.5700011 58.7690541,28.774999 58.7990542,28.965 C58.8290543,29.155001 58.8440542,29.3599989 58.8440542,29.58 C58.8440542,29.8600014 58.7990547,30.1299987 58.7090542,30.39 C58.6190538,30.6500013 58.5540544,30.9199986 58.5140542,31.2 C58.4540539,31.6600023 58.3790546,32.089998 58.2890542,32.49 C58.1990537,32.890002 58.074055,33.2999979 57.9140542,33.72 C57.874054,33.8400006 57.8490543,33.9799992 57.8390542,34.14 C57.8290542,34.3000008 57.8140543,34.4649991 57.7940542,34.635 C57.7740541,34.8050008 57.7540543,34.9649992 57.7340542,35.115 C57.7140541,35.2650007 57.6740545,35.3799996 57.6140542,35.46 C57.5140537,35.5800006 57.4240546,35.6350001 57.3440542,35.625 C57.2640538,35.6149999 57.1840546,35.5700004 57.1040542,35.49 C57.0240538,35.4099996 56.9640544,35.3100006 56.9240542,35.19 C56.884054,35.0699994 56.8640542,34.9600005 56.8640542,34.86 C56.8640542,34.1199963 56.8590542,33.3950035 56.8490542,32.685 C56.8390542,31.9749964 56.8340542,31.2500037 56.8340542,30.51 C56.8340542,30.0899979 56.8440541,29.6650021 56.8640542,29.235 C56.8840543,28.8049978 56.8640545,28.3800021 56.8040542,27.96 C56.7440539,27.5399979 56.6290551,27.1450018 56.4590542,26.775 C56.2890534,26.4049981 56.024056,26.0800014 55.6640542,25.8 C55.2440521,25.4799984 54.9140554,25.1400018 54.6740542,24.78 C54.434053,24.4199982 54.2840545,23.9700027 54.2240542,23.43 C54.2040541,23.3299995 54.1940542,23.2250006 54.1940542,23.115 L54.1940542,22.77 C54.1940542,22.3099977 54.2390538,21.8400024 54.3290542,21.36 C54.4190547,20.8799976 54.484054,20.4100023 54.5240542,19.95 C54.6240547,18.8299944 54.6790541,17.7150055 54.6890542,16.605 C54.6990543,15.4949944 54.6940543,14.3800056 54.6740542,13.26 Z M62.1740542,9.87 C62.134054,10.0300008 62.0890545,10.2199989 62.0390542,10.44 C61.9890539,10.6600011 62.0140537,10.8499992 62.1140542,11.01 C62.274055,11.2500012 62.4890529,11.3749999 62.7590542,11.385 C63.0290555,11.3950001 63.2740531,11.4199998 63.4940542,11.46 C63.654055,11.5000002 63.8090534,11.5399998 63.9590542,11.58 C64.1090549,11.6200002 64.2440536,11.5300011 64.3640542,11.31 C64.4840548,11.0899989 64.5190544,10.785002 64.4690542,10.395 C64.419054,10.0049981 64.3240549,9.7000011 64.1840542,9.48 C64.1240539,9.3999996 64.0290548,9.30500055 63.8990542,9.195 C63.7690535,9.08499945 63.6290549,8.98500045 63.4790542,8.895 C63.3290534,8.80499955 63.179055,8.7400002 63.0290542,8.7 C62.8790535,8.6599998 62.7440548,8.6599998 62.6240542,8.7 C62.3640529,8.8000005 62.2340542,8.96499885 62.2340542,9.195 C62.2340542,9.42500115 62.2140544,9.6499989 62.1740542,9.87 Z M71.5654056,12.27 C71.445405,11.6499969 71.4104054,11.0000034 71.4604056,10.32 C71.5104058,9.6399966 71.5354056,8.9900031 71.5354056,8.37 C71.5354056,7.9099977 71.5554054,7.45500225 71.5954056,7.005 C71.6354058,6.55499775 71.6554056,6.1000023 71.6554056,5.64 L71.6554056,4.455 C71.6554056,4.04499795 71.7354048,3.6700017 71.8954056,3.33 C72.0154062,3.0899988 72.1404049,2.94500025 72.2704056,2.895 C72.4004063,2.84499975 72.5454048,2.84499975 72.7054056,2.895 C72.8654064,2.94500025 73.0254048,3.01499955 73.1854056,3.105 C73.3454064,3.19500045 73.5154047,3.2699997 73.6954056,3.33 C74.3154087,3.530001 74.9154027,3.6000003 75.4954056,3.54 C75.975408,3.4999998 76.4054037,3.4100007 76.7854056,3.27 C76.9654065,3.1899996 77.1354048,3.10500045 77.2954056,3.015 C77.4554064,2.92499955 77.6454045,2.8700001 77.8654056,2.85 C78.145407,2.8299999 78.3104053,2.8799994 78.3604056,3 C78.4104058,3.1200006 78.5154048,3.2599992 78.6754056,3.42 C78.7954062,3.5400006 78.915405,3.64499955 79.0354056,3.735 C79.1554062,3.82500045 79.2654051,3.9199995 79.3654056,4.02 C79.4654061,4.1200005 79.5404054,4.2399993 79.5904056,4.38 C79.6404058,4.5200007 79.6554057,4.6999989 79.6354056,4.92 C79.6154055,5.1000009 79.565406,5.2799991 79.4854056,5.46 C79.4054052,5.6400009 79.3654056,5.829999 79.3654056,6.03 C79.3654056,6.2500011 79.3954053,6.43499925 79.4554056,6.585 C79.5154059,6.73500075 79.5754053,6.8999991 79.6354056,7.08 C79.7754063,7.480002 79.8654054,7.90499775 79.9054056,8.355 C79.9454058,8.80500225 79.9654056,9.2399979 79.9654056,9.66 C79.9654056,10.060002 79.9154061,10.4399982 79.8154056,10.8 C79.7154051,11.1600018 79.6554057,11.539998 79.6354056,11.94 C79.5954054,12.3600021 79.6254051,12.7399983 79.7254056,13.08 C79.8254061,13.4200017 79.9454049,13.7799981 80.0854056,14.16 C80.2254063,14.5200018 80.3104054,14.8899981 80.3404056,15.27 C80.3704058,15.6500019 80.3754057,16.0299981 80.3554056,16.41 C80.3154054,17.210004 80.2604059,18.0049961 80.1904056,18.795 C80.1204052,19.585004 80.1954045,20.3599962 80.4154056,21.12 C80.5754064,21.6200025 80.7404048,22.0999977 80.9104056,22.56 C81.0804065,23.0200023 81.1054062,23.5199973 80.9854056,24.06 C80.8854051,24.5600025 80.7104069,24.8499996 80.4604056,24.93 C80.2104043,25.0100004 79.9354071,25.0150003 79.6354056,24.945 C79.3354041,24.8749996 79.0254072,24.7950005 78.7054056,24.705 C78.385404,24.6149995 78.1054068,24.6299994 77.8654056,24.75 C77.5854042,24.8900007 77.3804062,25.0899987 77.2504056,25.35 C77.1204049,25.6100013 77.0254059,25.8899985 76.9654056,26.19 C76.9054053,26.4900015 76.8654057,26.7949984 76.8454056,27.105 C76.8254055,27.4150015 76.7854059,27.6999987 76.7254056,27.96 C76.605405,28.6000032 76.5954051,29.2449967 76.6954056,29.895 C76.7954061,30.5450032 76.8454056,31.1899968 76.8454056,31.83 L76.8454056,32.37 C76.8454056,32.6500014 76.8304057,32.9299986 76.8004056,33.21 C76.7704054,33.4900014 76.7054061,33.724999 76.6054056,33.915 C76.5054051,34.1050009 76.3554066,34.1500005 76.1554056,34.05 C75.9954048,33.9499995 75.9154056,33.7800012 75.9154056,33.54 C75.9154056,33.2999988 75.8954058,33.1000008 75.8554056,32.94 C75.8154054,32.7799992 75.755406,32.6350006 75.6754056,32.505 C75.5954052,32.3749993 75.5354058,32.2300008 75.4954056,32.07 C75.4554054,31.8899991 75.4404056,31.700001 75.4504056,31.5 C75.4604056,31.299999 75.4654056,31.1100009 75.4654056,30.93 C75.4654056,30.529998 75.430406,30.1550018 75.3604056,29.805 L75.1354056,28.68 C75.0954054,28.4599989 75.0454059,28.2600009 74.9854056,28.08 C74.9254053,27.8999991 74.8954056,27.7000011 74.8954056,27.48 C74.8954056,27.2599989 74.9104054,27.0600009 74.9404056,26.88 C74.9704058,26.6999991 74.9754057,26.510001 74.9554056,26.31 C74.9354055,26.1899994 74.9304056,26.0600007 74.9404056,25.92 C74.9504056,25.7799993 74.9504056,25.6400007 74.9404056,25.5 C74.9304056,25.3599993 74.9054058,25.2250007 74.8654056,25.095 C74.8254054,24.9649994 74.7554061,24.8500005 74.6554056,24.75 C74.5954053,24.6899997 74.4954063,24.6350003 74.3554056,24.585 C74.2154049,24.5349998 74.0654064,24.4900002 73.9054056,24.45 C73.7454048,24.4099998 73.5854064,24.3750001 73.4254056,24.345 C73.2654048,24.3149998 73.145406,24.3 73.0654056,24.3 C72.9654051,24.3 72.8504062,24.3399996 72.7204056,24.42 C72.5904049,24.5000004 72.485406,24.5200002 72.4054056,24.48 C72.2054046,24.3999996 72.060406,24.1950016 71.9704056,23.865 C71.8804052,23.5349983 71.8254057,23.2800009 71.8054056,23.1 L71.8054056,23.04 C71.7654054,22.7599986 71.7554055,22.4750014 71.7754056,22.185 C71.7954057,21.8949986 71.8204054,21.6100014 71.8504056,21.33 C71.8804058,21.0499986 71.9004055,20.7650015 71.9104056,20.475 C71.9204057,20.1849986 71.9054058,19.9000014 71.8654056,19.62 C71.7854052,19.1999979 71.700406,18.790002 71.6104056,18.39 C71.5204051,17.989998 71.4754056,17.5800021 71.4754056,17.16 C71.4754056,16.3199958 71.5304051,15.505004 71.6404056,14.715 C71.7504062,13.924996 71.7254064,13.1100042 71.5654056,12.27 Z M80.896757,12.45 C80.9167571,11.9099973 80.9767565,11.3800026 81.076757,10.86 C81.1767575,10.3399974 81.2567567,9.8200026 81.316757,9.3 C81.3767573,8.7799974 81.3667574,8.25500265 81.286757,7.725 C81.2067566,7.19499735 81.166757,6.6700026 81.166757,6.15 C81.166757,5.749998 81.1917567,5.3400021 81.241757,4.92 C81.2917573,4.4999979 81.3767564,4.1000019 81.496757,3.72 C81.5967575,3.3599982 81.7317562,3.06500115 81.901757,2.835 C82.0717579,2.60499885 82.356755,2.4500004 82.756757,2.37 C83.1767591,2.2699995 83.5917549,2.2699995 84.001757,2.37 C84.411759,2.4700005 84.816755,2.5399998 85.216757,2.58 C85.616759,2.6000001 86.0417547,2.57500035 86.491757,2.505 C86.9417593,2.43499965 87.3567551,2.4599994 87.736757,2.58 C88.0367585,2.6800005 88.2467564,2.8699986 88.366757,3.15 C88.4867576,3.4300014 88.551757,3.73499835 88.561757,4.065 C88.571757,4.39500165 88.5517573,4.7299983 88.501757,5.07 C88.4517567,5.4100017 88.4167571,5.6899989 88.396757,5.91 C88.3767569,6.310002 88.3767569,6.70499805 88.396757,7.095 C88.4167571,7.48500195 88.3767575,7.8699981 88.276757,8.25 C88.1767565,8.650002 88.1217571,9.0299982 88.111757,9.39 C88.1017569,9.7500018 88.1167568,10.129998 88.156757,10.53 C88.1967572,11.0500026 88.2667565,11.5749974 88.366757,12.105 C88.4667575,12.6350027 88.5367568,13.1599974 88.576757,13.68 C88.5967571,13.9400013 88.6117569,14.2049987 88.621757,14.475 C88.6317571,14.7450014 88.6567568,15.0199986 88.696757,15.3 C88.7567573,15.6800019 88.8167567,16.0949978 88.876757,16.545 C88.9367573,16.9950023 89.1367553,17.3499987 89.476757,17.61 C89.6367578,17.7300006 89.8517556,17.8299996 90.121757,17.91 C90.3917584,17.9900004 90.6817554,18.0549998 90.991757,18.105 C91.3017585,18.1550003 91.6017555,18.185 91.891757,18.195 C92.1817584,18.205 92.426756,18.2000001 92.626757,18.18 C93.426761,18.1199997 94.1717535,18.0999999 94.861757,18.12 C95.5517604,18.1400001 96.2467535,18.3699978 96.946757,18.81 C97.2267584,18.9900009 97.4117566,19.1949989 97.501757,19.425 C97.5917574,19.6550012 97.6467569,19.9399983 97.666757,20.28 C97.666757,20.3200002 97.671757,20.3549999 97.681757,20.385 C97.691757,20.4150002 97.696757,20.4499998 97.696757,20.49 C97.7167571,20.8500018 97.7067572,21.2699976 97.666757,21.75 C97.6267568,22.2300024 97.5217578,22.669998 97.351757,23.07 C97.1817561,23.470002 96.9417586,23.7849989 96.631757,24.015 C96.3217554,24.2450012 95.8967597,24.2800008 95.356757,24.12 C95.0767556,24.0399996 94.7917584,23.9550005 94.501757,23.865 C94.2117556,23.7749996 93.9067586,23.7200001 93.586757,23.7 C93.3067556,23.6799999 93.0217584,23.7249995 92.731757,23.835 C92.4417555,23.9450006 92.1567584,24.0199998 91.876757,24.06 C91.2167537,24.1600005 90.7567583,24.4049981 90.496757,24.795 C90.2367557,25.185002 90.0767573,25.6449974 90.016757,26.175 C89.9567567,26.7050027 89.9467568,27.2499972 89.986757,27.81 C90.0267572,28.3700028 90.0267572,28.8599979 89.986757,29.28 L89.986757,29.775 C89.986757,29.9850011 89.9767571,30.189999 89.956757,30.39 C89.9367569,30.590001 89.8917574,30.7649993 89.821757,30.915 C89.7517566,31.0650008 89.6367578,31.1499999 89.476757,31.17 C89.2567559,31.2100002 89.0917575,31.1650007 88.981757,31.035 C88.8717565,30.9049994 88.8017571,30.740001 88.771757,30.54 C88.7417568,30.339999 88.7367569,30.1350011 88.756757,29.925 C88.7767571,29.714999 88.7967569,29.5400007 88.816757,29.4 C88.8367571,29.1799989 88.8767567,28.9550012 88.936757,28.725 C88.9967573,28.4949989 89.0167571,28.2500013 88.996757,27.99 C88.9567568,27.7099986 88.8717576,27.470001 88.741757,27.27 C88.6117563,27.069999 88.4967575,26.8400013 88.396757,26.58 C88.3167566,26.3999991 88.281757,26.2050011 88.291757,25.995 C88.301757,25.784999 88.311757,25.5700011 88.321757,25.35 C88.331757,25.1299989 88.3167572,24.925001 88.276757,24.735 C88.2367568,24.5449991 88.1367578,24.3700008 87.976757,24.21 C87.7167557,23.9899989 87.4317586,23.9399994 87.121757,24.06 C86.8117554,24.1800006 86.5867577,24.3799986 86.446757,24.66 C86.2867562,24.9400014 86.1617574,25.2349985 86.071757,25.545 C85.9817565,25.8550016 85.9067573,26.1799983 85.846757,26.52 C85.8067568,26.8400016 85.786757,27.1399986 85.786757,27.42 C85.786757,27.7000014 85.686758,27.9799986 85.486757,28.26 C85.3267562,28.4800011 85.1817576,28.5850001 85.051757,28.575 C84.9217563,28.565 84.8067575,28.4950007 84.706757,28.365 C84.6067565,28.2349994 84.5267573,28.075001 84.466757,27.885 C84.4067567,27.6949991 84.376757,27.5200008 84.376757,27.36 C84.376757,27.1399989 84.3867569,26.9100012 84.406757,26.67 C84.4267571,26.4299988 84.4167572,26.2000011 84.376757,25.98 C84.3367568,25.7599989 84.2817574,25.5600009 84.211757,25.38 C84.1417566,25.1999991 84.0867572,25.0000011 84.046757,24.78 C83.9667566,24.2799975 83.7667586,23.9450009 83.446757,23.775 C83.1267554,23.6049992 82.766759,23.420001 82.366757,23.22 C81.966755,22.9999989 81.6267584,22.6450025 81.346757,22.155 C81.0667556,21.6649975 80.8467578,21.2000022 80.686757,20.76 C80.5667564,20.3999982 80.5117569,19.9600026 80.521757,19.44 C80.531757,18.9199974 80.5567568,18.460002 80.596757,18.06 C80.6367572,17.6199978 80.6817567,17.1950021 80.731757,16.785 C80.7817572,16.374998 80.8167569,15.9600021 80.836757,15.54 C80.8767572,15.0199974 80.8917571,14.5050026 80.881757,13.995 C80.8717569,13.4849975 80.8767569,12.9700026 80.896757,12.45 Z M97.5481084,12.45 C97.5681085,11.9099973 97.6281079,11.3800026 97.7281084,10.86 C97.8281089,10.3399974 97.9081081,9.8200026 97.9681084,9.3 C98.0281087,8.7799974 98.0181088,8.25500265 97.9381084,7.725 C97.858108,7.19499735 97.8181084,6.6700026 97.8181084,6.15 C97.8181084,5.749998 97.8431082,5.3400021 97.8931084,4.92 C97.9431086,4.4999979 98.0281078,4.1000019 98.1481084,3.72 C98.2481089,3.3599982 98.3831075,3.06500115 98.5531084,2.835 C98.7231092,2.60499885 99.0081064,2.4500004 99.4081084,2.37 C99.8281105,2.2699995 100.243106,2.2699995 100.653108,2.37 C101.06311,2.4700005 101.468106,2.5399998 101.868108,2.58 C102.26811,2.6000001 102.693106,2.57500035 103.143108,2.505 C103.593111,2.43499965 104.008106,2.4599994 104.388108,2.58 C104.68811,2.6800005 104.898108,2.8699986 105.018108,3.15 C105.138109,3.4300014 105.203108,3.73499835 105.213108,4.065 C105.223108,4.39500165 105.203109,4.7299983 105.153108,5.07 C105.103108,5.4100017 105.068108,5.6899989 105.048108,5.91 C105.028108,6.310002 105.028108,6.70499805 105.048108,7.095 C105.068108,7.48500195 105.028109,7.8699981 104.928108,8.25 C104.828108,8.650002 104.773108,9.0299982 104.763108,9.39 C104.753108,9.7500018 104.768108,10.129998 104.808108,10.53 C104.848109,11.0500026 104.918108,11.5749974 105.018108,12.105 C105.118109,12.6350027 105.188108,13.1599974 105.228108,13.68 C105.248108,13.9400013 105.263108,14.2049987 105.273108,14.475 C105.283108,14.7450014 105.308108,15.0199986 105.348108,15.3 C105.408109,15.6800019 105.468108,16.0949978 105.528108,16.545 C105.588109,16.9950023 105.788107,17.3499987 106.128108,17.61 C106.288109,17.7300006 106.503107,17.8299996 106.773108,17.91 C107.04311,17.9900004 107.333107,18.0549998 107.643108,18.105 C107.95311,18.1550003 108.253107,18.185 108.543108,18.195 C108.83311,18.205 109.078107,18.2000001 109.278108,18.18 C110.078112,18.1199997 110.823105,18.0999999 111.513108,18.12 C112.203112,18.1400001 112.898105,18.3699978 113.598108,18.81 C113.87811,18.9900009 114.063108,19.1949989 114.153108,19.425 C114.243109,19.6550012 114.298108,19.9399983 114.318108,20.28 C114.318108,20.3200002 114.323108,20.3549999 114.333108,20.385 C114.343108,20.4150002 114.348108,20.4499998 114.348108,20.49 C114.368108,20.8500018 114.358109,21.2699976 114.318108,21.75 C114.278108,22.2300024 114.173109,22.669998 114.003108,23.07 C113.833108,23.470002 113.59311,23.7849989 113.283108,24.015 C112.973107,24.2450012 112.548111,24.2800008 112.008108,24.12 C111.728107,24.0399996 111.44311,23.9550005 111.153108,23.865 C110.863107,23.7749996 110.55811,23.7200001 110.238108,23.7 C109.958107,23.6799999 109.67311,23.7249995 109.383108,23.835 C109.093107,23.9450006 108.80811,24.0199998 108.528108,24.06 C107.868105,24.1600005 107.40811,24.4049981 107.148108,24.795 C106.888107,25.185002 106.728109,25.6449974 106.668108,26.175 C106.608108,26.7050027 106.598108,27.2499972 106.638108,27.81 C106.678109,28.3700028 106.678109,28.8599979 106.638108,29.28 L106.638108,29.775 C106.638108,29.9850011 106.628109,30.189999 106.608108,30.39 C106.588108,30.590001 106.543109,30.7649993 106.473108,30.915 C106.403108,31.0650008 106.288109,31.1499999 106.128108,31.17 C105.908107,31.2100002 105.743109,31.1650007 105.633108,31.035 C105.523108,30.9049994 105.453109,30.740001 105.423108,30.54 C105.393108,30.339999 105.388108,30.1350011 105.408108,29.925 C105.428109,29.714999 105.448108,29.5400007 105.468108,29.4 C105.488108,29.1799989 105.528108,28.9550012 105.588108,28.725 C105.648109,28.4949989 105.668109,28.2500013 105.648108,27.99 C105.608108,27.7099986 105.523109,27.470001 105.393108,27.27 C105.263108,27.069999 105.148109,26.8400013 105.048108,26.58 C104.968108,26.3999991 104.933108,26.2050011 104.943108,25.995 C104.953108,25.784999 104.963108,25.5700011 104.973108,25.35 C104.983108,25.1299989 104.968109,24.925001 104.928108,24.735 C104.888108,24.5449991 104.788109,24.3700008 104.628108,24.21 C104.368107,23.9899989 104.08311,23.9399994 103.773108,24.06 C103.463107,24.1800006 103.238109,24.3799986 103.098108,24.66 C102.938108,24.9400014 102.813109,25.2349985 102.723108,25.545 C102.633108,25.8550016 102.558109,26.1799983 102.498108,26.52 C102.458108,26.8400016 102.438108,27.1399986 102.438108,27.42 C102.438108,27.7000014 102.338109,27.9799986 102.138108,28.26 C101.978108,28.4800011 101.833109,28.5850001 101.703108,28.575 C101.573108,28.565 101.458109,28.4950007 101.358108,28.365 C101.258108,28.2349994 101.178109,28.075001 101.118108,27.885 C101.058108,27.6949991 101.028108,27.5200008 101.028108,27.36 C101.028108,27.1399989 101.038108,26.9100012 101.058108,26.67 C101.078108,26.4299988 101.068109,26.2000011 101.028108,25.98 C100.988108,25.7599989 100.933109,25.5600009 100.863108,25.38 C100.793108,25.1999991 100.738109,25.0000011 100.698108,24.78 C100.618108,24.2799975 100.41811,23.9450009 100.098108,23.775 C99.7781068,23.6049992 99.4181104,23.420001 99.0181084,23.22 C98.6181064,22.9999989 98.2781098,22.6450025 97.9981084,22.155 C97.718107,21.6649975 97.4981092,21.2000022 97.3381084,20.76 C97.2181078,20.3999982 97.1631084,19.9600026 97.1731084,19.44 C97.1831084,18.9199974 97.2081082,18.460002 97.2481084,18.06 C97.2881086,17.6199978 97.3331082,17.1950021 97.3831084,16.785 C97.4331087,16.374998 97.4681083,15.9600021 97.4881084,15.54 C97.5281086,15.0199974 97.5431084,14.5050026 97.5331084,13.995 C97.5231084,13.4849975 97.5281083,12.9700026 97.5481084,12.45 Z" id="REDPILL" stroke="#D0021B"></path>
    </g>
</svg>