<svg width="20" height="20" viewBox="0 0 20 20" fill="none" xmlns="http://www.w3.org/2000/svg">
<path d="M19.4044 17.7545L14.9939 13.344C16.0558 11.9304 16.629 10.2098 16.6271 8.44183C16.6271 3.92589 12.953 0.251831 8.43707 0.251831C3.92113 0.251831 0.24707 3.92589 0.24707 8.44183C0.24707 12.9578 3.92113 16.6318 8.43707 16.6318C10.205 16.6338 11.9257 16.0605 13.3393 14.9987L17.7497 19.4092C17.973 19.6087 18.2642 19.7153 18.5635 19.7069C18.8628 19.6985 19.1476 19.5759 19.3594 19.3641C19.5711 19.1524 19.6938 18.8676 19.7021 18.5683C19.7105 18.2689 19.604 17.9777 19.4044 17.7545ZM2.58707 8.44183C2.58707 7.28481 2.93017 6.15377 3.57297 5.19174C4.21578 4.22972 5.12942 3.47991 6.19837 3.03713C7.26732 2.59436 8.44356 2.47851 9.57834 2.70424C10.7131 2.92996 11.7555 3.48712 12.5736 4.30525C13.3918 5.12339 13.9489 6.16576 14.1747 7.30055C14.4004 8.43534 14.2845 9.61158 13.8418 10.6805C13.399 11.7495 12.6492 12.6631 11.6872 13.3059C10.7251 13.9487 9.59409 14.2918 8.43707 14.2918C6.88612 14.29 5.39923 13.673 4.30255 12.5763C3.20586 11.4797 2.58893 9.99277 2.58707 8.44183Z" fill="#BDBDBD"/>
</svg>
